# xmcd
#
# Track frame offsets: 
#        150
#        20101
#        41981
#        57270
#        70269
#        84075
#        99301
#
# Disc length: 1545 seconds
#
# Revision: 0
# Processed by: cddbd v1.5.2PL0 Copyright (c) Steve Scherf et al.
# Submitted via: ExactAudioCopy v1.0b3
#
DISCID=56060707
DTITLE=Michael Rank and Stag - Kin. Disc I
DYEAR=2012
DGENRE=Country
TTITLE0=Tenderhook
TTITLE1=On The Bleed
TTITLE2=Straw Man
TTITLE3=The Goat
TTITLE4=Pilgrims
TTITLE5=Gun Breaths
TTITLE6=Kin
EXTD=
EXTT0=
EXTT1=
EXTT2=
EXTT3=
EXTT4=
EXTT5=
EXTT6=
PLAYORDER=
